<svg width="24" height="24" viewBox="0 0 24 24" fill="none" xmlns="http://www.w3.org/2000/svg">
<path d="M12 0C5.38332 0 0 5.38332 0 12C0 18.6166 5.38332 24 12 24C18.6166 24 24 18.6166 24 12C24 5.38332 18.6167 0 12 0ZM12 21.913C6.53424 21.913 2.08692 17.4657 2.08692 12C2.08692 6.53424 6.53424 2.08697 12 2.08697C17.4657 2.08697 21.913 6.53424 21.913 12C21.913 17.4657 17.4657 21.913 12 21.913Z" fill="#545454"/>
<path d="M17.5868 6.41428C17.4355 6.26191 17.207 6.21809 17.0118 6.30368L9.70748 9.43412C9.58437 9.48631 9.48625 9.5854 9.43303 9.70857L6.30259 17.0129C6.21807 17.2091 6.2619 17.4365 6.41319 17.5879C6.51336 17.6859 6.64694 17.7392 6.78258 17.7392C6.85145 17.7392 6.92134 17.7245 6.98816 17.6974L14.2925 14.567C14.4156 14.5138 14.5137 14.4157 14.5669 14.2925L17.6974 6.98822C17.7809 6.79203 17.737 6.56454 17.5868 6.41428ZM12 13.0435C11.425 13.0435 10.9565 12.575 10.9565 12C10.9565 11.4251 11.4251 10.9566 12 10.9566C12.575 10.9566 13.0434 11.4251 13.0434 12C13.0435 12.575 12.575 13.0435 12 13.0435Z" fill="#545454"/>
</svg>
