<svg width="32" height="32" viewBox="0 0 32 32" fill="none" xmlns="http://www.w3.org/2000/svg">
<path d="M21.5 8.5V10H22.5V8.5H23.5V10H24.5V8.5H25.5V10H26.5V8.5H28V11H2V8.5H21.5ZM2 12H8V13H3C2.73488 12.9997 2.48071 12.8942 2.29324 12.7068C2.10577 12.5193 2.00031 12.2651 2 12ZM13.3835 17C13.2186 17 13.0556 16.965 12.9053 16.8972C12.7551 16.8294 12.6209 16.7304 12.5118 16.6068C12.4027 16.4832 12.3211 16.3378 12.2725 16.1803C12.2239 16.0227 12.2093 15.8567 12.2298 15.6931L12.4414 14H16.1136C16.1336 14 16.1531 14.0017 16.173 14.0022C15.8209 14.8374 15.2276 15.3444 14.4019 15.5097L14.5981 16.4903C15.79 16.2517 16.6814 15.4633 17.1516 14.2483C17.6459 14.4993 18.0316 14.922 18.2363 15.4371L18.8613 17H13.3835ZM29.4361 25.3024C29.3966 25.3634 29.3423 25.4135 29.2784 25.448C29.2144 25.4826 29.1428 25.5004 29.0701 25.5H23.3385L19.1648 15.0658C18.9227 14.4548 18.5021 13.9308 17.9578 13.5623C17.4136 13.1938 16.7709 12.9979 16.1136 13H9V12H19.5V13H20.5V12H26.5396C25.9693 12.4503 25.5641 13.0767 25.3872 13.7814C25.2103 14.4862 25.2716 15.2297 25.5617 15.8959L29.4714 24.8881C29.5007 24.9546 29.5129 25.0274 29.5067 25.0998C29.5006 25.1722 29.4763 25.2418 29.4361 25.3024Z" fill="white"/>
<path d="M26.5 23.5H27.5V24.5H26.5V23.5Z" fill="white"/>
<path d="M2.5 6.5H3.5V7.5H2.5V6.5Z" fill="white"/>
<path d="M25.5 6.5H26.5V7.5H25.5V6.5Z" fill="white"/>
</svg>
