<svg width="32" height="32" viewBox="0 0 32 32" fill="none" xmlns="http://www.w3.org/2000/svg">
<g clip-path="url(#clip0_0_71)">
<path d="M25.1755 13.2274C24.673 13.6553 24.0621 14.0312 23.3677 14.3517C24.7077 15.9914 25.5141 18.0834 25.5141 20.3615C25.5141 25.6079 21.2463 29.8759 16.0002 29.8759C10.7538 29.8759 6.48585 25.6079 6.48585 20.3615C6.48585 18.0834 7.2923 15.9914 8.63222 14.3517C7.93789 14.0312 7.32751 13.6552 6.82447 13.2274C5.28753 15.2006 4.36183 17.6726 4.36183 20.3616C4.36183 26.779 9.58283 32.0001 16.0003 32.0001C22.4178 32.0001 27.6383 26.7791 27.6383 20.3616C27.6382 17.6721 26.7131 15.2006 25.1755 13.2274Z" fill="white"/>
<path d="M19.8492 24.2105C17.7272 26.3325 14.2734 26.3325 12.1514 24.2105C11.7365 23.7956 11.0644 23.7956 10.6495 24.2105C10.2347 24.6253 10.2347 25.2979 10.6495 25.7123C12.1249 27.187 14.0623 27.9246 16.0002 27.9246C17.9381 27.9246 19.8756 27.1871 21.351 25.7123C21.7658 25.2979 21.7658 24.6253 21.351 24.2105C20.9362 23.7956 20.2641 23.7956 19.8492 24.2105Z" fill="white"/>
<path d="M16.0003 14.1609C21.0056 14.1609 25.0629 12.4485 25.0629 10.3357C25.0629 9.00565 23.4517 7.83473 21.0092 7.14908L21.3743 5.60688L22.4021 1.26121V1.26068C22.4021 0.564722 19.536 0 16.0003 0C12.4646 0 9.59845 0.564722 9.59845 1.26068V1.26121L10.6262 5.60688L10.9914 7.14908C8.54886 7.83473 6.93711 9.00565 6.93711 10.3357C6.93704 12.4485 10.9949 14.1609 16.0003 14.1609Z" fill="white"/>
<path d="M20.1328 15.3582C19.943 15.2816 19.746 15.2271 19.5381 15.2271C19.1636 15.2271 18.8171 15.3728 18.5102 15.6077C17.8377 16.1227 17.3761 17.1131 17.3761 18.266C17.3761 18.5865 17.4228 18.8867 17.4901 19.1745C17.0629 18.8909 16.5515 18.7239 16.0003 18.7239C15.6165 18.7239 15.2535 18.8063 14.9231 18.9505C14.9605 18.73 14.987 18.503 14.987 18.266C14.987 17.149 14.5534 16.1829 13.9145 15.6549C13.5935 15.39 13.2243 15.2271 12.825 15.2271C12.574 15.2271 12.337 15.2993 12.1125 15.4097C11.2703 15.8245 10.6631 16.94 10.6631 18.266C10.6631 18.7928 10.7626 19.284 10.9327 19.7133C10.9622 19.7891 11.0343 19.8394 11.1153 19.8425C11.1967 19.8456 11.2719 19.8 11.3072 19.7268C11.5793 19.1615 12.155 18.7711 12.825 18.7711C13.3779 18.7711 13.8554 19.0454 14.1623 19.4561C13.6351 19.9487 13.3005 20.6452 13.3005 21.4237C13.3005 22.914 14.5088 24.1234 16.0002 24.1234C17.4906 24.1234 18.6994 22.914 18.6994 21.4237C18.6994 20.7572 18.449 20.1551 18.0486 19.6843C18.3292 19.144 18.8866 18.7711 19.538 18.7711C20.208 18.7711 20.7836 19.1622 21.0559 19.7273C21.0911 19.8005 21.1664 19.8455 21.2477 19.843C21.3287 19.8399 21.4002 19.7896 21.4303 19.7138C21.6004 19.2844 21.6999 18.7928 21.6999 18.266C21.7 16.8793 21.0357 15.7234 20.1328 15.3582Z" fill="white"/>
</g>
<defs>
<clipPath id="clip0_0_71">
<rect width="32" height="32" fill="white"/>
</clipPath>
</defs>
</svg>
