<svg width="11" height="10" viewBox="0 0 11 10" fill="none" xmlns="http://www.w3.org/2000/svg">
<path d="M3.9561 1.75164C4.44205 0.256029 6.55795 0.256029 7.0439 1.75164C7.26123 2.4205 7.88453 2.87336 8.58781 2.87336C10.1604 2.87336 10.8142 4.88569 9.54199 5.81003C8.97302 6.22341 8.73495 6.95614 8.95227 7.625C9.43823 9.12062 7.72643 10.3643 6.45418 9.43997C5.88522 9.02659 5.11478 9.02659 4.54582 9.43997C3.27357 10.3643 1.56177 9.12062 2.04773 7.625C2.26505 6.95614 2.02698 6.22341 1.45801 5.81003C0.185763 4.88569 0.839611 2.87336 2.41219 2.87336C3.11547 2.87336 3.73877 2.4205 3.9561 1.75164Z" fill="#FFAC0B"/>
</svg>
