<svg width="30" height="30" viewBox="0 0 30 30" fill="none" xmlns="http://www.w3.org/2000/svg">
<path d="M27.8234 6.91411H18.549L21.8423 1.51055C22.1278 1.04207 21.9795 0.430817 21.511 0.145321C21.0426 -0.140307 20.4313 0.00810321 20.1458 0.476579L16.2224 6.91411H13.7777L9.85428 0.476579C9.56879 0.00823565 8.95753 -0.140108 8.48905 0.145321C8.02058 0.430884 7.87223 1.04207 8.1578 1.51055L11.451 6.91411H2.17649C0.976356 6.91411 0 7.89047 0 9.09053V27.0555C0 28.2555 0.976356 29.2319 2.17649 29.2319H27.8235C29.0236 29.2319 30 28.2555 30 27.0555V9.09053C29.9999 7.89047 29.0236 6.91411 27.8234 6.91411ZM21.0382 24.4445C21.0382 25.0978 20.5085 25.6276 19.8551 25.6276H4.71443C4.06105 25.6275 3.53138 25.0978 3.53138 24.4445V11.7016C3.53138 11.0482 4.06105 10.5185 4.71449 10.5185H19.8551C20.5084 10.5185 21.0382 11.0482 21.0382 11.7016V24.4445ZM25.4166 24.0664C24.2846 24.0664 23.3637 23.1454 23.3637 22.0134C23.3637 20.8814 24.2846 19.9604 25.4166 19.9604C26.5486 19.9604 27.4696 20.8814 27.4696 22.0134C27.4696 23.1455 26.5486 24.0664 25.4166 24.0664ZM25.4166 16.1856C24.2846 16.1856 23.3637 15.2647 23.3637 14.1326C23.3637 13.0006 24.2846 12.0797 25.4166 12.0797C26.5486 12.0797 27.4696 13.0006 27.4696 14.1326C27.4696 15.2647 26.5486 16.1856 25.4166 16.1856Z" fill="white"/>
</svg>
