<svg width="11" height="12" viewBox="0 0 11 12" fill="none" xmlns="http://www.w3.org/2000/svg">
<path d="M5.27344 0C3.52877 0 2.10938 1.4194 2.10938 3.16406C2.10938 4.90873 3.52877 6.32812 5.27344 6.32812C7.0181 6.32812 8.4375 4.90873 8.4375 3.16406C8.4375 1.4194 7.0181 0 5.27344 0Z" fill="#E7E7E7"/>
<path d="M9.21014 8.3952C8.34389 7.51563 7.19552 7.03125 5.97656 7.03125H4.57031C3.35138 7.03125 2.20298 7.51563 1.33673 8.3952C0.474726 9.27045 0 10.4258 0 11.6484C0 11.8426 0.157406 12 0.351562 12H10.1953C10.3895 12 10.5469 11.8426 10.5469 11.6484C10.5469 10.4258 10.0721 9.27045 9.21014 8.3952Z" fill="#E7E7E7"/>
</svg>
